<svg width="88" height="60" viewBox="0 0 88 60" fill="none" xmlns="http://www.w3.org/2000/svg">
<path d="M43.8674 54.5961C34.2369 54.562 25.1634 52.5049 16.84 47.9359C9.69865 44.0186 4.19392 38.5555 0.348567 31.6225C-0.0909019 30.8345 -0.0189198 30.0957 0.405395 29.3304C4.82661 21.3935 11.3808 15.5478 19.8595 11.5926C28.7815 7.42896 38.2566 5.94007 48.1105 6.59927C57.1159 7.20165 65.534 9.67177 73.1035 14.4226C79.2333 18.2679 84.0485 23.2536 87.4089 29.4668C87.8408 30.2662 87.7385 30.9974 87.318 31.7589C82.8741 39.8133 76.1722 45.6476 67.5911 49.5877C60.1012 53.0239 52.1415 54.5772 43.8674 54.5961ZM83.2946 30.5125C80.8434 26.1102 77.4906 22.4808 73.4141 19.4462C66.5682 14.3506 58.673 11.6835 50.1109 10.6947C41.2495 9.66798 32.6306 10.725 24.3716 13.9301C16.0179 17.1731 9.38799 22.3747 4.81524 29.8116C4.50837 30.3117 4.49322 30.6754 4.80009 31.1868C8.37267 37.0666 13.3356 41.5977 19.5829 44.9051C26.0689 48.3413 33.0549 50.1219 40.4501 50.5538C50.3344 51.1296 59.6921 49.4096 68.364 44.7876C74.7363 41.3855 79.7751 36.7105 83.2946 30.5125Z" fill="white"/>
<path d="M43.8827 47.4396C34.6803 47.4472 27.1146 39.8966 27.1146 30.6943C27.1108 21.5374 34.7826 13.8808 43.9054 13.9376C53.0774 13.9945 60.5787 21.4995 60.6204 30.6678C60.6658 39.8436 53.0926 47.432 43.8827 47.4396ZM43.7879 43.1169C50.6565 43.1472 56.2636 37.6235 56.3014 30.789C56.3393 23.9166 50.7096 18.2528 43.8561 18.2641C37.0822 18.2755 31.4676 23.8598 31.4373 30.6185C31.4032 37.4682 36.9572 43.0828 43.7879 43.1169Z" fill="white"/>
<path d="M40.1891 26.4624C42.4279 26.4624 44.2428 24.6475 44.2428 22.4087C44.2428 20.1699 42.4279 18.355 40.1891 18.355C37.9503 18.355 36.1354 20.1699 36.1354 22.4087C36.1354 24.6475 37.9503 26.4624 40.1891 26.4624Z" fill="white"/>
<path d="M48.0916 22.9469C48.69 22.9469 49.1751 22.4618 49.1751 21.8634C49.1751 21.265 48.69 20.7798 48.0916 20.7798C47.4932 20.7798 47.0081 21.265 47.0081 21.8634C47.0081 22.4618 47.4932 22.9469 48.0916 22.9469Z" fill="white"/>
<path d="M51.2473 31.6073C52.7454 31.6073 53.9598 30.3928 53.9598 28.8947C53.9598 27.3966 52.7454 26.1821 51.2473 26.1821C49.7491 26.1821 48.5347 27.3966 48.5347 28.8947C48.5347 30.3928 49.7491 31.6073 51.2473 31.6073Z" fill="white"/>
<path d="M45.7959 45.3104C47.4258 45.3104 48.7471 43.9891 48.7471 42.3592C48.7471 40.7292 47.4258 39.4079 45.7959 39.4079C44.1659 39.4079 42.8446 40.7292 42.8446 42.3592C42.8446 43.9891 44.1659 45.3104 45.7959 45.3104Z" fill="white"/>
<path d="M34.8579 41.3667C36.7557 41.3667 38.2941 39.8283 38.2941 37.9305C38.2941 36.0328 36.7557 34.4943 34.8579 34.4943C32.9602 34.4943 31.4218 36.0328 31.4218 37.9305C31.4218 39.8283 32.9602 41.3667 34.8579 41.3667Z" fill="white"/>
<path d="M41.3975 35.0738C42.1968 35.0738 42.8448 34.4258 42.8448 33.6265C42.8448 32.8273 42.1968 32.1793 41.3975 32.1793C40.5983 32.1793 39.9503 32.8273 39.9503 33.6265C39.9503 34.4258 40.5983 35.0738 41.3975 35.0738Z" fill="white"/>
<path d="M34.2901 30.9027C35.1647 30.9027 35.8738 30.1937 35.8738 29.3191C35.8738 28.4445 35.1647 27.7355 34.2901 27.7355C33.4155 27.7355 32.7065 28.4445 32.7065 29.3191C32.7065 30.1937 33.4155 30.9027 34.2901 30.9027Z" fill="white"/>
<path d="M15.6318 1.99994L71.4558 58.1346" stroke="white" stroke-width="4.16738" stroke-miterlimit="10"/>
</svg>
